<?xml version="1.0" encoding="iso-8859-1"?>
<!-- Generator: Adobe Illustrator 19.0.0, SVG Export Plug-In . SVG Version: 6.00 Build 0)  -->
<svg version="1.1" id="Layer_1" xmlns="http://www.w3.org/2000/svg" xmlns:xlink="http://www.w3.org/1999/xlink" x="0px" y="0px"
	 viewBox="0 0 512 512" style="enable-background:new 0 0 512 512;" xml:space="preserve">
<g>
	<g>
		<path d="M123.565,0v512h264.87V0H123.565z M357.088,480.653L357.088,480.653H154.912V30.302h202.176V480.653z"/>
	</g>
</g>
<g>
	<g>
		<path d="M340.158,45.993H171.844v177.64h168.314V45.993H340.158z M308.812,192.286h-0.001H203.191V77.34h105.62V192.286z"/>
	</g>
</g>
<g>
	<g>
		<path d="M256.001,303.419c-27.367,0-49.633,22.265-49.633,49.632c0,27.367,22.265,49.632,49.633,49.632
			s49.632-22.265,49.632-49.632C305.632,325.683,283.368,303.419,256.001,303.419z M256.001,371.335
			c-10.082,0-18.286-8.202-18.286-18.285s8.202-18.285,18.286-18.285s18.285,8.202,18.285,18.285S266.084,371.335,256.001,371.335z"
			/>
	</g>
</g>
<g>
</g>
<g>
</g>
<g>
</g>
<g>
</g>
<g>
</g>
<g>
</g>
<g>
</g>
<g>
</g>
<g>
</g>
<g>
</g>
<g>
</g>
<g>
</g>
<g>
</g>
<g>
</g>
<g>
</g>
</svg>
